<?xml version="1.0" encoding="utf-8"?>
<!-- Generator: Adobe Illustrator 24.0.2, SVG Export Plug-In . SVG Version: 6.00 Build 0)  -->
<svg version="1.1" xmlns="http://www.w3.org/2000/svg" xmlns:xlink="http://www.w3.org/1999/xlink" x="0px" y="0px"
	 viewBox="0 0 675 370" style="enable-background:new 0 0 675 370;" xml:space="preserve">
<style type="text/css">
	.st0{fill-rule:evenodd;clip-rule:evenodd;fill:#FFC839;}
	.st1{fill:#FFFFFF;}
	.st2{fill:#FFC839;}
</style>
<g id="Calque_2">
</g>
<g id="Calque_1">
	<g>
		<path class="st0" d="M289.7,327.9c0,13.8-11.4,25.1-25.5,25.1c-14.1,0-25.5-11.2-25.5-25.1c0-13.8,11.4-25.1,25.5-25.1
			C278.3,302.9,289.7,314.1,289.7,327.9z M280.6,327.9c0,8.7-7.2,16-16.4,16c-9.2,0-16.4-7.3-16.4-16c0-8.7,7.2-16,16.4-16
			C273.4,312,280.6,319.3,280.6,327.9z"/>
		<path class="st1" d="M382.3,213c-2-0.4-3.9,0.9-4.3,2.9l-5.6,28.6c-0.4,2,0.9,3.9,2.9,4.3l28.6,5.6c2,0.4,3.9-0.9,4.3-2.9
			l5.6-28.6c0.4-2-0.9-3.9-2.9-4.3L382.3,213z"/>
		<path class="st1" d="M600.1,289.7c-2.6,0-5,1.5-6.2,3.8l-8.3,15c-1.3,2.3-1.2,5.1,0.1,7.3l8.8,14.7c1.3,2.2,3.8,3.6,6.4,3.5
			l17.1-0.3c2.6,0,5-1.5,6.3-3.8l8.3-15c1.3-2.3,1.2-5.1-0.1-7.3l-8.8-14.7c-1.3-2.2-3.8-3.6-6.4-3.5L600.1,289.7z"/>
		<circle class="st1" cx="62.8" cy="288" r="10.9"/>
		<path class="st2" d="M122.7,153.9c-1.7-0.4-3.2,1.3-2.7,2.9l9.2,28.6c0.5,1.7,2.7,2.1,3.9,0.8l20.2-22.2c1.2-1.3,0.5-3.4-1.2-3.8
			L122.7,153.9z"/>
		<path class="st2" d="M517,186.4c-4.7,1.9-8.9,5-12.2,8.9c-2.5,3-4.4,6.4-5.6,10.1c-0.6,1.9-2.6,3.2-4.5,2.8
			c-2-0.4-3.2-2.4-2.6-4.3c1.5-4.8,4-9.3,7.2-13.2c4-4.8,9.2-8.6,15-11c5.8-2.4,12.1-3.3,18.4-2.7c5.1,0.5,9.9,1.9,14.4,4.3
			c1.8,0.9,2.2,3.2,1.1,4.9c-1.1,1.7-3.4,2.1-5.2,1.2c-3.5-1.7-7.2-2.8-11.1-3.2C526.8,183.6,521.7,184.4,517,186.4z"/>
		<path class="st0" d="M645.2,41.7c0,13.8-11.4,25.1-25.5,25.1c-14.1,0-25.5-11.2-25.5-25.1s11.4-25.1,25.5-25.1
			C633.7,16.7,645.2,27.9,645.2,41.7z M636.1,41.7c0,8.7-7.2,16-16.4,16s-16.4-7.3-16.4-16s7.2-16,16.4-16S636.1,33.1,636.1,41.7z"
			/>
		<path class="st1" d="M32.5,101.1c-1.4,1.5-1.3,3.8,0.1,5.2l21.1,20.2c1.5,1.4,3.8,1.3,5.2-0.1L79,105.3c1.4-1.5,1.3-3.8-0.1-5.2
			L57.8,80c-1.5-1.4-3.8-1.3-5.2,0.1L32.5,101.1z"/>
		<path class="st1" d="M331.8,80.4c3.7-3.5,6.5-7.9,8.1-12.8c1.2-3.7,1.8-7.6,1.6-11.4c-0.1-2,1.2-3.9,3.2-4.2c2-0.3,3.9,1,4,3
			c0.3,5-0.3,10.1-1.9,14.9c-2,6-5.4,11.4-9.9,15.7c-4.5,4.4-10.1,7.5-16.1,9.3c-4.9,1.4-10,1.8-15,1.3c-2-0.2-3.3-2.2-2.9-4.1
			c0.4-2,2.3-3.2,4.3-3c3.9,0.3,7.7,0,11.5-1.1C323.6,86.5,328.1,83.9,331.8,80.4z"/>
	</g>
</g>
</svg>
