<svg id="Layer_1" data-name="Layer 1" xmlns="http://www.w3.org/2000/svg" viewBox="0 0 1277.75 1276.6"><defs><style>.cls-1{fill:#23c1e8;}</style></defs><title>Icon-Flat</title><path class="cls-1" d="M1274.78,575.31c-6-80-28.65-158.47-64.84-230C1153,231.82,1060.59,136.81,949.08,76.14,855.46,25.4,748.64-2.9,641.92.24,565.92.3,75.93.07,0,.33L.26,579.61q0,56.65.06,113.19C.45,855.31.55,1018,.55,1186.41v42.13c7.28-6.3,10-15.23,11.87-24.38,52-323.5,105.46-646.77,157.56-970.27,4.07-23.7,6.6-48,14.91-70.69,17-51,51.1-97,97.54-124.71-12.23,17.31-25.94,33.7-36.16,52.43-4.17,7.18-8.21,14.45-11.71,22l-.45.9c-15.88,41.53,3.85,98.9,26.2,142.92,16.1,33,44.59,60.15,79.39,72.6C380.58,343.59,424,348.8,467,351.68c73.6,4.23,147.5.22,220.75-7.6,13.2-1.3,26.33-3.53,39.59-4.6Q483.92,648.89,240.55,958.25c-75.71,96.11-141.65,185.82-217.27,282-7,8.59-17.85,11.83-22.71,13.38v22.9q341.66.3,683.38.1a633.28,633.28,0,0,0,267.06-77c112.9-61.74,205.75-159.12,262.25-274.73C1266.86,817.34,1285.68,694.45,1274.78,575.31Z"/></svg>