<svg xmlns="http://www.w3.org/2000/svg" xmlns:xlink="http://www.w3.org/1999/xlink" viewBox="0 0 1280 1278.85"><defs><style>.cls-1{isolation:isolate;}.cls-2{fill:url(#Dégradé_sans_nom_38);}.cls-3{fill:#0d98ba;}.cls-4{fill:#5bdfff;}.cls-5{fill:#fff;}.cls-6{opacity:0.18;mix-blend-mode:soft-light;}.cls-7{fill:#23c1e8;}</style><linearGradient id="Dégradé_sans_nom_38" y1="639.43" x2="1280" y2="639.43" gradientUnits="userSpaceOnUse"><stop offset="0.24" stop-color="#0d98ba"/><stop offset="0.53" stop-color="#19afd3"/><stop offset="0.79" stop-color="#20bce3"/><stop offset="1" stop-color="#23c1e8"/></linearGradient></defs><title>Icon-Color</title><g class="cls-1"><g id="Layer_1" data-name="Layer 1"><path class="cls-2" d="M0,.33C76.07.07,566.92.3,643.05.24,750-2.91,857,25.44,950.76,76.27c111.7,60.78,204.29,156,261.31,269.68,36.25,71.63,58.9,150.25,65,230.37,10.92,119.35-7.94,242.46-61.62,350.15-56.6,115.82-149.61,213.37-262.71,275.21a634.25,634.25,0,0,1-267.53,77.17q-342.31-.15-684.59-.1"/><path class="cls-3" d="M239,242.66c105.2-1,297.86-.13,403.06-.39,54.29-1.62,108.4,10.92,158.26,32,101.37,43.6,182.36,131.92,216.31,237,22.06,66.84,25.14,139.37,12.64,208.45a392.47,392.47,0,0,1-99.76,194.64c-74.77,80-184.46,126.09-294,122.81-131.37-.13-262.74.23-394.07-.19"/><path class="cls-4" d="M0,.33Q207.06.28,414,.4c-13.27,3-21.43,4.43-34.6,7.06-33.07,7-68.16,11.25-96.57,31.14-46.52,27.7-80.7,73.86-97.71,124.92-8.33,22.78-10.85,47.07-14.94,70.82C118,558.41,64.5,882.25,12.38,1206.32c-1.85,9.17-4.52,18.08-11.81,24.4C.57,810.68,0,428.19,0,.33Z"/><path class="cls-5" d="M185.23,163.49c17-51.06,51.18-97.23,97.71-124.93-12.25,17.34-26,33.76-36.22,52.52-4.18,7.19-8.23,14.48-11.73,22-13.74,27.73-24.27,57.34-29.13,88-12.47,62.75-2.13,128.78,23.49,187,28,64,72.31,119.61,122.33,167.88C240.37,781.2,126.75,1005.42,15.21,1230.52c-3.11,4.76-6.35,10-11.73,12.57l-2.91,1.55c0-4.64,0-9.26,0-13.92,7.29-6.32,10-15.27,11.88-24.44,52.13-324.06,105.65-647.9,157.84-972C174.37,210.56,176.9,186.26,185.23,163.49Z"/><g class="cls-6"><path d="M234.48,113.39c3.5-7.54,7.55-14.83,11.73-22,14.58,55.44,37.61,111.39,80.22,151.3a143.67,143.67,0,0,0,46.61,28c62.11,23.13,128.72,30.13,194.42,34.08q74.4,3.84,148.9.39c-9.27,13.25-18.5,26.5-28,39.55C615,352.48,541,356.5,467.22,352.26c-43.08-2.89-86.53-8.1-127.48-22.39-34.86-12.47-63.4-39.65-79.53-72.73C237.75,212.89,233.87,162.18,234.48,113.39Z"/></g><path class="cls-7" d="M205.93,201.42c4.86-30.65,15.39-60.26,29.13-88-.62,48.79,3.27,99.49,25.72,143.75,16.13,33.07,44.67,60.25,79.53,72.73,40.95,14.28,84.4,19.5,127.49,22.38,73.73,4.25,147.76.23,221.14-7.61,13.22-1.3,26.37-3.53,39.65-4.6Q484.79,650,241,959.93c-75.84,96.29-141.89,186.16-217.64,282.47-7,8.63-17.91,11.89-22.77,13.44V1251c9-3.17,14.9-9.62,20.86-17.41q243.23-361.78,487-723.33c-60.26-24-118.44-54.46-168.92-95.5-44.41-36-82.68-80.44-107.39-132.21C219.34,257,212,229.18,205.93,201.42Z"/><path class="cls-4" d="M229.27,388.19c-25.63-58.25-36-124.28-23.49-187,6,27.76,13.41,55.53,26.15,81.15,24.71,51.77,63,96.25,107.39,132.22,50.48,41,108.66,71.53,168.92,95.5q-242.88,362-486.7,723.43c-5.12,7.94-12,14.4-21,17.57v-6.39c.91-.49,1.92-1,2.83-1.49,5.37-2.56,8.61-7.81,11.72-12.57,111.55-225.1,225.16-449.32,336.48-674.51C301.58,507.8,257.26,452.2,229.27,388.19Z"/></g></g></svg>