<svg xmlns="http://www.w3.org/2000/svg" xmlns:xlink="http://www.w3.org/1999/xlink" viewBox="0 0 1280 228"><defs><style>.cls-1{isolation:isolate;}.cls-2{fill:url(#Dégradé_sans_nom_38);}.cls-3{fill:#0d98ba;}.cls-4{fill:#5bdfff;}.cls-5{fill:#fff;}.cls-6{opacity:0.18;mix-blend-mode:soft-light;}.cls-7{fill:#23c1e8;}.cls-8{fill:#1b2830;}</style><linearGradient id="Dégradé_sans_nom_38" y1="115.01" x2="226.18" y2="115.01" gradientUnits="userSpaceOnUse"><stop offset="0.24" stop-color="#0d98ba"/><stop offset="0.53" stop-color="#19afd3"/><stop offset="0.79" stop-color="#20bce3"/><stop offset="1" stop-color="#23c1e8"/></linearGradient></defs><title>Lockup-Color</title><g class="cls-1"><g id="Layer_1" data-name="Layer 1"><path class="cls-2" d="M0,2.09c13.44,0,100.17,0,113.63,0,18.89-.56,37.8,4.45,54.37,13.43a111.58,111.58,0,0,1,46.17,47.66,108.51,108.51,0,0,1,11.48,40.7c1.93,21.09-1.4,42.85-10.89,61.87A111.7,111.7,0,0,1,121.07,228q-60.48,0-121,0"/><path class="cls-3" d="M42.22,44.9c18.59-.17,52.64,0,71.22-.06a67,67,0,0,1,28,5.65,69.48,69.48,0,0,1,38.22,41.88,75.26,75.26,0,0,1,2.23,36.83,69.23,69.23,0,0,1-69.57,56.09c-23.21,0-46.42,0-69.63,0"/><path class="cls-4" d="M0,2.09q36.59,0,73.16,0c-2.35.53-3.79.78-6.11,1.25C61.2,4.59,55,5.33,50,8.85A40.56,40.56,0,0,0,32.72,30.92c-1.48,4-1.92,8.32-2.64,12.51C20.85,100.7,11.4,157.92,2.19,215.18A7.3,7.3,0,0,1,.1,219.5C.1,145.27,0,77.69,0,2.09Z"/><path class="cls-5" d="M32.73,30.91A40.61,40.61,0,0,1,50,8.84c-2.17,3.06-4.6,6-6.4,9.28-.74,1.27-1.46,2.56-2.08,3.89a54.78,54.78,0,0,0-5.14,15.55C34.17,48.65,36,60.32,40.53,70.61c4.94,11.31,12.77,21.13,21.61,29.66C42.47,140.07,22.4,179.69,2.69,219.46a5.56,5.56,0,0,1-2.08,2.22L.1,222V219.5a7.31,7.31,0,0,0,2.1-4.32c9.21-57.27,18.67-114.49,27.89-171.75C30.81,39.23,31.26,34.94,32.73,30.91Z"/><g class="cls-6"><path d="M41.43,22.06c.62-1.33,1.34-2.62,2.08-3.89C46.08,28,50.15,37.85,57.68,44.9a25.18,25.18,0,0,0,8.24,4.94c11,4.09,22.74,5.33,34.35,6,8.76.45,17.55.48,26.31.07-1.64,2.34-3.27,4.68-5,7a239.44,239.44,0,0,1-39.07,1.34C75,63.76,67.27,62.84,60,60.32A25.5,25.5,0,0,1,46,47.46C42,39.64,41.32,30.68,41.43,22.06Z"/></g><path class="cls-7" d="M36.39,37.62a54.68,54.68,0,0,1,5.14-15.55c-.1,8.62.58,17.58,4.55,25.4A25.48,25.48,0,0,0,60.13,60.32c7.24,2.53,14.92,3.45,22.53,4a238.49,238.49,0,0,0,39.08-1.35c2.33-.23,4.66-.62,7-.81Q85.66,116.89,42.58,171.65c-13.4,17-25.07,32.89-38.46,49.91a8.22,8.22,0,0,1-4,2.38v-.85A8.25,8.25,0,0,0,3.79,220q43-63.93,86-127.81C79.19,88,68.9,82.57,60,75.32A68.53,68.53,0,0,1,41,52,61,61,0,0,1,36.39,37.62Z"/><path class="cls-4" d="M40.51,70.62c-4.53-10.29-6.35-22-4.15-33.05A61.26,61.26,0,0,0,41,51.91,68.45,68.45,0,0,0,60,75.27c8.92,7.26,19.2,12.64,29.85,16.88q-42.91,64-86,127.83A7.48,7.48,0,0,1,.1,223.09V222l.5-.27a5.6,5.6,0,0,0,2.07-2.22c19.71-39.77,39.79-79.39,59.46-119.19C53.29,91.75,45.46,81.93,40.51,70.62Z"/><path class="cls-8" d="M415.57,161.12h-124q1.18,17.24,15.75,27.79a55.27,55.27,0,0,0,33.3,10.55q29.71,0,45.18-18.72l19,20.8Q379.29,228,338.28,228q-33.3,0-56.63-22.15T258.31,146.4q0-37.31,23.79-59.3t56-22q32.25,0,54.85,19.47t22.59,53.66ZM291.61,135h90.66q0-19.92-12.48-30.62T339,93.64a52.62,52.62,0,0,0-32.85,11.15Q291.6,115.94,291.61,135Z"/><path class="cls-8" d="M492.26,225.62,428.65,67.48h34.48L511.29,187l48.15-119.5h34.48L530.31,225.62Z"/><path class="cls-8" d="M750,204.37Q726.2,228,690.54,228t-59.46-23.63q-23.77-23.64-23.78-57.82t23.78-57.82q23.79-23.62,59.46-23.63T750,88.73q23.78,23.64,23.78,57.82T750,204.37Zm-95.27-20.51q14.12,14.41,35.82,14.41t35.82-14.41q14.11-14.42,14.12-37.31t-14.12-37.31q-14.13-14.42-35.82-14.41t-35.82,14.41q-14.13,14.43-14.12,37.31T654.72,183.86Z"/><path class="cls-8" d="M813.6,36a20.29,20.29,0,0,1-6.24-14.86A20.31,20.31,0,0,1,813.6,6.24a20.83,20.83,0,0,1,29.73,0,20.31,20.31,0,0,1,6.24,14.87A20.29,20.29,0,0,1,843.33,36a20.83,20.83,0,0,1-29.73,0Zm31.21,189.65H811.52V67.48h33.29Z"/><path class="cls-8" d="M975.9,98.69q-24.67,0-37.16,16t-12.48,43.11v67.77H893V67.48h33.29V99.29a68.85,68.85,0,0,1,21.85-24.38q13.82-9.51,29.28-9.81l.3,33.59Z"/><path class="cls-8" d="M1137.61,225.62h-30.32v-21.1Q1087.67,228,1054.68,228q-24.69,0-40.88-14t-16.2-37.31q0-23.33,17.24-34.93t46.67-11.59h43.11v-5.94q0-31.51-35.08-31.51-22,0-45.78,16L1008.9,88a102.37,102.37,0,0,1,65.4-22.89q27.93,0,45.63,14.12t17.68,44.44Zm-33.29-58.86V153.39h-37.46q-36,0-36,22.59,0,11.6,8.91,17.69t24.82,6.09a45,45,0,0,0,27.8-8.92Q1104.31,181.93,1104.32,166.76Z"/><path class="cls-8" d="M1223.22,94.23v80.26q0,11.31,6,18t16.64,6.69q10.71,0,20.52-10.41L1280,212.25Q1262.45,228,1241.21,228a49.92,49.92,0,0,1-36.27-14.71q-15-14.72-15-39.69V94.23H1170V67.48h19.92V17.84h33.29V67.48h41.62V94.23Z"/></g></g></svg>