<svg id="Layer_1" data-name="Layer 1" xmlns="http://www.w3.org/2000/svg" viewBox="0 0 1279.73 228"><defs><style>.cls-1{fill:#23c1e8;}</style></defs><title>Lockup-Flat</title><path class="cls-1" d="M225.25,104.08A108.31,108.31,0,0,0,213.8,63.45a111.43,111.43,0,0,0-46.1-47.57c-16.54-9-35.41-14-54.27-13.41-13.43,0-100,0-113.43,0L.05,104.84q0,10,0,20c0,28.72,0,57.47,0,87.22v7.45a7.27,7.27,0,0,0,2.09-4.31C11.39,158,20.83,100.92,30,43.75c.72-4.19,1.16-8.47,2.63-12.49a40.54,40.54,0,0,1,17.23-22,95,95,0,0,0-6.38,9.26,43.86,43.86,0,0,0-2.07,3.89l-.08.16C38.56,29.87,42.05,40,46,47.79A25.45,25.45,0,0,0,60,60.62c7.22,2.52,14.88,3.44,22.48,3.95a238.71,238.71,0,0,0,39-1.35c2.33-.23,4.65-.62,7-.81q-43,54.68-86,109.34c-13.37,17-25,32.83-38.39,49.82a8.21,8.21,0,0,1-4,2.37v4q60.38.06,120.76,0a111.47,111.47,0,0,0,93.53-62.16C223.85,146.85,227.18,125.13,225.25,104.08Z"/><path class="cls-1" d="M415.3,161.12h-124q1.19,17.24,15.76,27.79a55.27,55.27,0,0,0,33.29,10.55q29.73,0,45.19-18.72l19,20.8Q379,228,338,228q-33.28,0-56.63-22.15T258.05,146.4q0-37.31,23.78-59.3t56-22q32.26,0,54.85,19.47t22.59,53.66ZM291.34,135H382q0-19.92-12.49-30.62t-30.76-10.7a52.62,52.62,0,0,0-32.85,11.15Q291.34,115.94,291.34,135Z"/><path class="cls-1" d="M492,225.62,428.38,67.48h34.48L511,187l48.16-119.5h34.48L530.05,225.62Z"/><path class="cls-1" d="M749.72,204.37Q725.95,228,690.27,228t-59.45-23.63Q607,180.73,607,146.55t23.78-57.82q23.77-23.62,59.45-23.63t59.45,23.63q23.79,23.64,23.78,57.82T749.72,204.37Zm-95.27-20.51q14.12,14.41,35.82,14.41t35.82-14.41q14.11-14.42,14.12-37.31t-14.12-37.31Q712,94.82,690.27,94.83t-35.82,14.41q-14.12,14.43-14.12,37.31T654.45,183.86Z"/><path class="cls-1" d="M813.34,36a20.26,20.26,0,0,1-6.25-14.86,20.28,20.28,0,0,1,6.25-14.87,20.81,20.81,0,0,1,29.72,0,20.31,20.31,0,0,1,6.24,14.87A20.29,20.29,0,0,1,843.06,36a20.81,20.81,0,0,1-29.72,0Zm31.21,189.65h-33.3V67.48h33.3Z"/><path class="cls-1" d="M975.64,98.69q-24.67,0-37.16,16T926,157.85v67.77H892.7V67.48H926V99.29a68.94,68.94,0,0,1,21.85-24.38q13.83-9.51,29.28-9.81l.3,33.59Z"/><path class="cls-1" d="M1137.35,225.62H1107v-21.1Q1087.41,228,1054.41,228q-24.67,0-40.87-14t-16.2-37.31q0-23.33,17.24-34.93t46.67-11.59h43.1v-5.94q0-31.51-35.08-31.51-22,0-45.77,16L1008.63,88A102.39,102.39,0,0,1,1074,65.1q27.95,0,45.63,14.12t17.69,44.44Zm-33.3-58.86V153.39H1066.6q-36,0-36,22.59,0,11.6,8.92,17.69t24.82,6.09q15.9,0,27.79-8.92T1104.05,166.76Z"/><path class="cls-1" d="M1223,94.23v80.26q0,11.31,5.94,18t16.65,6.69q10.7,0,20.51-10.41l13.67,23.49Q1262.2,228,1240.94,228a49.89,49.89,0,0,1-36.26-14.71q-15-14.72-15-39.69V94.23h-19.91V67.48h19.91V17.84H1223V67.48h41.61V94.23Z"/></svg>