<svg id="Layer_1" data-name="Layer 1" xmlns="http://www.w3.org/2000/svg" viewBox="0 0 1279.6 228"><defs><style>.cls-1{fill:#fff;}</style></defs><title>Lockup-White</title><path class="cls-1" d="M225.25,104.08A108.31,108.31,0,0,0,213.8,63.45a111.43,111.43,0,0,0-46.1-47.57c-16.54-9-35.41-14-54.27-13.41-13.43,0-100,0-113.43,0L.05,104.84q0,10,0,20c0,28.72,0,57.47,0,87.22v7.45a7.27,7.27,0,0,0,2.09-4.31C11.39,158,20.83,100.92,30,43.75c.72-4.19,1.16-8.47,2.63-12.49a40.54,40.54,0,0,1,17.23-22,95,95,0,0,0-6.38,9.26,43.86,43.86,0,0,0-2.07,3.89l-.08.16C38.56,29.87,42.05,40,46,47.79A25.45,25.45,0,0,0,60,60.62c7.22,2.52,14.88,3.44,22.48,3.95a238.71,238.71,0,0,0,39-1.35c2.33-.23,4.65-.62,7-.81q-43,54.68-86,109.34c-13.37,17-25,32.83-38.39,49.82a8.21,8.21,0,0,1-4,2.37v4q60.38.06,120.76,0a111.47,111.47,0,0,0,93.53-62.16C223.85,146.85,227.18,125.13,225.25,104.08Z"/><path class="cls-1" d="M415.17,161.12h-124q1.19,17.24,15.76,27.79a55.22,55.22,0,0,0,33.29,10.55q29.72,0,45.18-18.72l19,20.8Q378.9,228,337.88,228q-33.3,0-56.63-22.15T257.92,146.4q0-37.31,23.78-59.3t56-22q32.25,0,54.85,19.47t22.59,53.66ZM291.21,135h90.67q0-19.92-12.49-30.62t-30.77-10.7a52.59,52.59,0,0,0-32.84,11.15Q291.2,115.94,291.21,135Z"/><path class="cls-1" d="M491.86,225.62,428.25,67.48h34.48L510.89,187,559,67.48h34.49L529.91,225.62Z"/><path class="cls-1" d="M749.59,204.37Q725.8,228,690.14,228t-59.45-23.63q-23.79-23.64-23.79-57.82t23.79-57.82q23.77-23.62,59.45-23.63t59.45,23.63q23.77,23.64,23.78,57.82T749.59,204.37Zm-95.27-20.51q14.11,14.41,35.82,14.41T726,183.86q14.12-14.42,14.12-37.31T726,109.24q-14.13-14.42-35.82-14.41t-35.82,14.41q-14.13,14.43-14.12,37.31T654.32,183.86Z"/><path class="cls-1" d="M813.2,36A20.29,20.29,0,0,1,807,21.11,20.31,20.31,0,0,1,813.2,6.24a20.83,20.83,0,0,1,29.73,0,20.31,20.31,0,0,1,6.24,14.87A20.29,20.29,0,0,1,842.93,36a20.83,20.83,0,0,1-29.73,0Zm31.22,189.65h-33.3V67.48h33.3Z"/><path class="cls-1" d="M975.5,98.69q-24.68,0-37.15,16t-12.49,43.11v67.77H892.57V67.48h33.29V99.29a68.94,68.94,0,0,1,21.85-24.38Q961.54,65.4,977,65.1l.3,33.59Z"/><path class="cls-1" d="M1137.22,225.62h-30.33v-21.1Q1087.27,228,1054.28,228q-24.67,0-40.88-14t-16.2-37.31q0-23.33,17.25-34.93t46.67-11.59h43.1v-5.94q0-31.51-35.08-31.51-22,0-45.78,16L1008.5,88a102.37,102.37,0,0,1,65.4-22.89q27.93,0,45.63,14.12t17.69,44.44Zm-33.3-58.86V153.39h-37.45q-36,0-36,22.59,0,11.6,8.92,17.69t24.82,6.09a45,45,0,0,0,27.79-8.92Q1103.93,181.93,1103.92,166.76Z"/><path class="cls-1" d="M1222.82,94.23v80.26q0,11.31,6,18t16.65,6.69q10.69,0,20.51-10.41l13.67,23.49Q1262.07,228,1240.81,228a49.92,49.92,0,0,1-36.27-14.71q-15-14.72-15-39.69V94.23h-19.92V67.48h19.92V17.84h33.29V67.48h41.62V94.23Z"/></svg>