<svg id="Layer_1" data-name="Layer 1" xmlns="http://www.w3.org/2000/svg" viewBox="0 0 1279.67 228"><title>Lockup-Black</title><path d="M225.25,104.08A108.31,108.31,0,0,0,213.8,63.45a111.43,111.43,0,0,0-46.1-47.57c-16.54-9-35.41-14-54.27-13.41-13.43,0-100,0-113.43,0L.05,104.84q0,10,0,20c0,28.72,0,57.47,0,87.22v7.45a7.27,7.27,0,0,0,2.09-4.31C11.39,158,20.83,100.92,30,43.75c.72-4.19,1.16-8.47,2.63-12.49a40.54,40.54,0,0,1,17.23-22,95,95,0,0,0-6.38,9.26,43.86,43.86,0,0,0-2.07,3.89l-.08.16C38.56,29.87,42.05,40,46,47.79A25.45,25.45,0,0,0,60,60.62c7.22,2.52,14.88,3.44,22.48,3.95a238.71,238.71,0,0,0,39-1.35c2.33-.23,4.65-.62,7-.81q-43,54.68-86,109.34c-13.37,17-25,32.83-38.39,49.82a8.21,8.21,0,0,1-4,2.37v4q60.38.06,120.76,0a111.47,111.47,0,0,0,93.53-62.16C223.85,146.85,227.18,125.13,225.25,104.08Z"/><path d="M415.24,161.12h-124q1.19,17.24,15.75,27.79a55.27,55.27,0,0,0,33.3,10.55q29.71,0,45.18-18.72l19,20.8Q379,228,338,228q-33.3,0-56.63-22.15T258,146.4q0-37.31,23.78-59.3t56-22q32.25,0,54.84,19.47t22.6,53.66ZM291.28,135h90.66q0-19.92-12.48-30.62t-30.77-10.7a52.62,52.62,0,0,0-32.85,11.15Q291.27,115.94,291.28,135Z"/><path d="M491.93,225.62,428.31,67.48H462.8L511,187l48.16-119.5h34.48L530,225.62Z"/><path d="M749.66,204.37Q725.87,228,690.2,228t-59.45-23.63Q607,180.73,607,146.55t23.78-57.82Q654.53,65.11,690.2,65.1t59.46,23.63q23.77,23.64,23.78,57.82T749.66,204.37Zm-95.28-20.51q14.11,14.41,35.82,14.41T726,183.86q14.12-14.42,14.12-37.31T726,109.24Q711.91,94.82,690.2,94.83t-35.82,14.41q-14.11,14.43-14.12,37.31T654.38,183.86Z"/><path d="M813.27,36A20.29,20.29,0,0,1,807,21.11a20.31,20.31,0,0,1,6.24-14.87,20.83,20.83,0,0,1,29.73,0,20.31,20.31,0,0,1,6.24,14.87A20.29,20.29,0,0,1,843,36a20.83,20.83,0,0,1-29.73,0Zm31.21,189.65H811.19V67.48h33.29Z"/><path d="M975.57,98.69q-24.68,0-37.16,16t-12.48,43.11v67.77h-33.3V67.48h33.3V99.29a68.85,68.85,0,0,1,21.85-24.38q13.82-9.51,29.28-9.81l.29,33.59Z"/><path d="M1137.28,225.62H1107v-21.1Q1087.34,228,1054.34,228q-24.67,0-40.87-14t-16.2-37.31q0-23.33,17.24-34.93t46.67-11.59h43.11v-5.94q0-31.51-35.08-31.51-22,0-45.78,16L1008.57,88A102.37,102.37,0,0,1,1074,65.1q27.94,0,45.63,14.12t17.69,44.44ZM1104,166.76V153.39h-37.46q-36,0-36,22.59,0,11.6,8.92,17.69t24.82,6.09a45,45,0,0,0,27.8-8.92Q1104,181.93,1104,166.76Z"/><path d="M1222.89,94.23v80.26q0,11.31,5.95,18t16.64,6.69q10.71,0,20.51-10.41l13.68,23.49Q1262.12,228,1240.88,228a49.89,49.89,0,0,1-36.27-14.71q-15-14.72-15-39.69V94.23h-19.92V67.48h19.92V17.84h33.29V67.48h41.62V94.23Z"/></svg>