<?xml version="1.0" standalone="no"?>
<!DOCTYPE svg PUBLIC "-//W3C//DTD SVG 20010904//EN"
 "http://www.w3.org/TR/2001/REC-SVG-20010904/DTD/svg10.dtd">
<svg version="1.0" xmlns="http://www.w3.org/2000/svg"
 width="1280.000000pt" height="1280.000000pt" viewBox="0 0 1280.000000 1280.000000"
 preserveAspectRatio="xMidYMid meet">
<metadata>
Created by potrace 1.14, written by Peter Selinger 2001-2017
</metadata>
<g transform="translate(0.000000,1280.000000) scale(0.100000,-0.100000)"
fill="#000000" stroke="none">
<path d="M0 6395 l0 -6395 3463 0 c2306 0 3500 3 3573 10 840 80 1613 305
2349 684 1537 792 2696 2203 3169 3859 111 388 185 797 228 1262 20 217 17
961 -5 1195 -44 469 -106 815 -217 1203 -406 1426 -1295 2656 -2530 3499 -894
610 -1976 989 -3050 1068 -85 6 -1394 10 -3557 10 l-3423 0 0 -6395z m2714
5858 c-192 -259 -310 -457 -428 -724 -473 -1065 -352 -2183 351 -3258 205
-313 394 -547 714 -882 l158 -166 -518 -1039 c-1760 -3532 -2864 -5734 -2891
-5767 -18 -20 -45 -44 -61 -52 l-29 -16 0 67 c0 61 3 69 34 106 19 22 44 68
56 102 13 36 107 594 235 1381 118 726 374 2303 570 3505 196 1202 466 2865
600 3695 135 831 256 1569 270 1642 115 597 466 1148 944 1481 41 29 76 50 79
48 2 -3 -35 -58 -84 -123z"/>
</g>
</svg>
