<svg width="20" viewBox="0 0 20 20" fill="none" xmlns="http://www.w3.org/2000/svg">
  <path class="shape" d="M11 1.79907C6.55498 1.79907 2.93898 5.36107 2.83098 9.79507V10.0001H0.458984L4.05298 13.8941L7.54698 10.0001H4.87498V9.79507C4.98198 6.49207 7.68298 3.85007 11 3.85007C14.386 3.85007 17.131 6.60407 17.131 10.0001C17.131 13.3961 14.386 16.1501 11 16.1501C9.69446 16.1508 8.42314 15.7327 7.37298 14.9571L5.96698 16.4611C7.402 17.5889 9.17479 18.2011 11 18.1991C15.515 18.1991 19.174 14.5291 19.174 10.0001C19.174 5.47107 15.515 1.79907 11 1.79907ZM9.99998 5.00007V10.0001C10.0011 10.265 10.1064 10.519 10.293 10.7071L13.493 13.9071C13.776 13.7241 14.043 13.5181 14.28 13.2791L12 11.0001V5.00007H9.99998Z" fill="current"/>
</svg>
