<svg width="24" viewBox="0 0 24 24" fill="none" xmlns="http://www.w3.org/2000/svg">
  <path class="shape" d="M18.5808 10.9956C18.0912 11.4972 12.9468 16.398 12.9468 16.398C12.8242 16.525 12.6773 16.626 12.5149 16.695C12.3524 16.764 12.1777 16.7996 12.0012 16.7996C11.8247 16.7996 11.65 16.764 11.4875 16.695C11.3251 16.626 11.1782 16.525 11.0556 16.398C11.0556 16.398 5.9088 11.4972 5.4216 10.9956C4.932 10.494 4.8984 9.59159 5.4216 9.05759C5.9424 8.52239 6.6708 8.48039 7.3104 9.05759L12 13.554L16.6896 9.05759C17.3292 8.48039 18.0588 8.52239 18.5808 9.05759C19.104 9.59159 19.0716 10.494 18.5808 10.9956Z" fill="current"/>
</svg>
