<svg width="20" viewBox="0 0 20 20" fill="none" xmlns="http://www.w3.org/2000/svg">
  <path class="shape" d="M18.405 4.799C18.294 4.359 17.75 4 17.195 4H10.381C9.82697 4 9.05098 3.682 8.65898 3.293L8.06297 2.705C7.67097 2.316 6.89598 2 6.34198 2H3.08698C2.53198 2 2.02798 2.447 1.96698 2.994L1.67498 6H18.606L18.405 4.799ZM19.412 7H0.587976C0.507204 7.00005 0.427334 7.01698 0.353482 7.04969C0.27963 7.0824 0.213424 7.13017 0.159105 7.18995C0.104786 7.24973 0.0635519 7.32019 0.0380438 7.39683C0.0125358 7.47347 0.00331613 7.55459 0.0109755 7.635L0.933976 17.304C0.952363 17.4944 1.041 17.6712 1.1826 17.7999C1.32421 17.9286 1.50865 17.9999 1.69998 18H18.3C18.4913 17.9999 18.6757 17.9286 18.8173 17.7999C18.959 17.6712 19.0476 17.4944 19.066 17.304L19.989 7.635C19.9966 7.55459 19.9874 7.47347 19.9619 7.39683C19.9364 7.32019 19.8952 7.24973 19.8408 7.18995C19.7865 7.13017 19.7203 7.0824 19.6465 7.04969C19.5726 7.01698 19.4927 7.00005 19.412 7Z" fill="current"/>
</svg>
