<svg width="30" height="30" viewBox="0 0 30 30" fill="none" xmlns="http://www.w3.org/2000/svg">
<path d="M26.82 12.6925C26.9738 13.5163 27.0575 14.3775 27.0575 15.2763C27.0575 22.3063 22.3525 27.305 15.2463 27.305C13.6302 27.3055 12.0299 26.9876 10.5368 26.3693C9.04362 25.7511 7.68693 24.8448 6.54421 23.7021C5.40148 22.5593 4.49512 21.2026 3.87691 19.7095C3.2587 18.2164 2.94076 16.6161 2.94125 15C2.94076 13.384 3.2587 11.7836 3.87691 10.2905C4.49512 8.79737 5.40148 7.44068 6.54421 6.29796C7.68693 5.15524 9.04362 4.24888 10.5368 3.63067C12.0299 3.01246 13.6302 2.69452 15.2463 2.69501C18.5688 2.69501 21.345 3.91751 23.475 5.90251L20.0063 9.37126V9.36251C18.715 8.13251 17.0763 7.50126 15.2463 7.50126C11.1863 7.50126 7.88625 10.9313 7.88625 14.9925C7.88625 19.0525 11.1863 22.49 15.2463 22.49C18.93 22.49 21.4375 20.3838 21.9525 17.4913H15.2463V12.6925H26.8213H26.82Z" fill="white"/>
</svg>
