<svg width="20" viewBox="0 0 20 20" fill="none" xmlns="http://www.w3.org/2000/svg">
  <g clip-path="url(#clip0_205_2719)">
    <path class="shape" d="M3.30202 12.2379C3.76602 14.1169 4.35602 14.9389 6.32402 15.7999C8.29302 16.6599 9.22802 17.5999 10 17.5999C10.771 17.5999 11.648 16.7779 13.616 15.9159C15.585 15.0549 15.059 14.7929 15.523 12.9139L10 15.5999L3.30202 12.2379ZM19.511 7.3359L11.186 2.6739C10.534 2.3089 9.46602 2.3089 8.81402 2.6739L0.488023 7.3359C-0.163977 7.7009 -0.163977 8.2989 0.488023 8.6639L8.81302 13.3259C9.46502 13.6909 10.533 13.6909 11.185 13.3259L16.567 10.3119L10.731 8.9449C10.4917 9.00258 10.2462 9.03146 10 9.0309C8.94802 9.0309 8.09602 8.5249 8.09602 7.8999C8.09602 7.2729 8.94902 6.7669 10 6.7669C10.816 6.7669 11.51 7.0739 11.78 7.5009L17.962 9.5299L19.511 8.6629C20.162 8.2989 20.162 7.7009 19.511 7.3359ZM16.967 16.1699C16.902 16.5549 18.25 17.1879 18.378 16.0629C18.957 10.9909 17.962 9.5319 17.962 9.5319L16.567 10.3129C16.567 10.3119 17.75 11.4379 16.967 16.1699Z" fill="current"/>
  </g>
  <defs>
    <clipPath id="clip0_205_2719">
      <rect width="20" height="20" fill="white"/>
    </clipPath>
  </defs>
</svg>
