<svg width="20" viewBox="0 0 20 20" fill="none" xmlns="http://www.w3.org/2000/svg">
  <path class="shape" d="M7.725 2.14604C6.709 2.90204 6.436 4.09904 6.486 4.73604C6.55 5.51504 6.708 6.52904 6.708 6.52904C6.708 6.52904 6.395 6.69904 6.395 7.38304C6.504 9.10004 7.078 8.35904 7.196 9.11204C7.48 10.926 8.129 10.603 8.129 11.593C8.129 13.242 7.449 14.013 5.326 14.927C3.196 15.845 1 17 1 19V20H19V19C19 17 16.803 15.845 14.672 14.928C12.549 14.014 11.871 13.244 11.871 11.594C11.871 10.604 12.518 10.927 12.803 9.11304C12.922 8.36004 13.495 9.10104 13.606 7.38404C13.606 6.70004 13.292 6.53004 13.292 6.53004C13.292 6.53004 13.45 5.51604 13.513 4.73704C13.578 3.92004 13.115 2.17604 11.213 1.64104C10.88 1.30104 10.655 0.760039 11.679 0.217039C9.439 0.112039 8.918 1.28404 7.725 2.14604Z" fill="current"/>
</svg>
